<?xml version="1.0" encoding="UTF-8" standalone="no"?>
<!-- Created with Inkscape (http://www.inkscape.org/) -->

<svg
   xmlns:dc="http://purl.org/dc/elements/1.1/"
   xmlns:cc="http://creativecommons.org/ns#"
   xmlns:rdf="http://www.w3.org/1999/02/22-rdf-syntax-ns#"
   xmlns:svg="http://www.w3.org/2000/svg"
   xmlns="http://www.w3.org/2000/svg"
   xmlns:sodipodi="http://sodipodi.sourceforge.net/DTD/sodipodi-0.dtd"
   xmlns:inkscape="http://www.inkscape.org/namespaces/inkscape"
   width="30"
   height="30"
   id="svg3839"
   version="1.1"
   inkscape:version="0.48.3.1 r9886"
   sodipodi:docname="toggle.svg"
   inkscape:export-filename="/run/user/william/gvfs/sftp:host=ksa-server/home/william/public_html/dpedit/img/toggle.png"
   inkscape:export-xdpi="90"
   inkscape:export-ydpi="90">
  <defs
     id="defs3841" />
  <sodipodi:namedview
     id="base"
     pagecolor="#ffffff"
     bordercolor="#666666"
     borderopacity="1.0"
     inkscape:pageopacity="0.0"
     inkscape:pageshadow="2"
     inkscape:zoom="14.45"
     inkscape:cx="27.770363"
     inkscape:cy="10.926469"
     inkscape:document-units="px"
     inkscape:current-layer="layer1"
     showgrid="false"
     inkscape:window-width="1615"
     inkscape:window-height="1026"
     inkscape:window-x="1345"
     inkscape:window-y="24"
     inkscape:window-maximized="1" />
  <metadata
     id="metadata3844">
    <rdf:RDF>
      <cc:Work
         rdf:about="">
        <dc:format>image/svg+xml</dc:format>
        <dc:type
           rdf:resource="http://purl.org/dc/dcmitype/StillImage" />
        <dc:title></dc:title>
      </cc:Work>
    </rdf:RDF>
  </metadata>
  <g
     inkscape:label="Layer 1"
     inkscape:groupmode="layer"
     id="layer1"
     transform="translate(0,-1022.3622)">
    <path
       sodipodi:type="arc"
       style="fill:#ffffff;fill-opacity:1;stroke:#000000;stroke-width:2.49014513;stroke-linecap:square;stroke-linejoin:round;stroke-miterlimit:4;stroke-opacity:1;stroke-dasharray:none;stroke-dashoffset:0"
       id="path3847"
       sodipodi:cx="18.497326"
       sodipodi:cy="19.527969"
       sodipodi:rx="11.450726"
       sodipodi:ry="11.450726"
       d="m 29.948051,19.527969 a 11.450726,11.450726 0 1 1 -22.9014507,0 11.450726,11.450726 0 1 1 22.9014507,0 z"
       transform="matrix(0.80316604,0,0,0.80316604,0.14357601,1021.678)" />
    <path
       style="font-size:medium;font-style:normal;font-variant:normal;font-weight:normal;font-stretch:normal;text-indent:0;text-align:start;text-decoration:none;line-height:normal;letter-spacing:normal;word-spacing:normal;text-transform:none;direction:ltr;block-progression:tb;writing-mode:lr-tb;text-anchor:start;baseline-shift:baseline;color:#000000;fill:#000000;fill-opacity:1;stroke:#ffffff;stroke-width:1;stroke-miterlimit:4;stroke-opacity:1;stroke-dasharray:none;marker:none;visibility:visible;display:inline;overflow:visible;enable-background:accumulate;font-family:Sans;-inkscape-font-specification:Sans"
       d="m 23.997729,1023.0113 a 1.50015,1.50015 0 0 0 -1.15625,0.5313 c 0,0 -4.340107,5.1334 -7,14.3437 -0.856449,-0.8451 -1.846247,-1.9483 -2.46875,-2.4062 -1.089358,-0.8013 -1.90625,-1.125 -1.90625,-1.125 a 1.50015,1.50015 0 1 0 -1.0625,2.7812 c 0,0 0.307984,0.1344 1.1875,0.7813 0.879516,0.6469 2.185838,1.7892 3.78125,3.7187 a 1.50015,1.50015 0 0 0 2.625,-0.625 c 2.34777,-10.263 7.0625,-15.4687 7.0625,-15.4687 a 1.50015,1.50015 0 0 0 -1.0625,-2.5313 z"
       id="path4376"
       inkscape:connector-curvature="0" />
    <path
       sodipodi:type="arc"
       style="fill:#ffffff;fill-opacity:1;stroke:#000000;stroke-width:2.49014521;stroke-linecap:square;stroke-linejoin:round;stroke-miterlimit:4;stroke-opacity:1;stroke-dasharray:none;stroke-dashoffset:0"
       id="path3847-5"
       sodipodi:cx="18.497326"
       sodipodi:cy="19.527969"
       sodipodi:rx="11.450726"
       sodipodi:ry="11.450726"
       d="m 29.948051,19.527969 a 11.450726,11.450726 0 1 1 -22.9014507,0 11.450726,11.450726 0 1 1 22.9014507,0 z"
       transform="matrix(0.80316604,0,0,0.80316604,42.259294,1009.0433)" />
    <path
       style="fill:none;stroke:#000000;stroke-width:2;stroke-linecap:round;stroke-linejoin:round;stroke-miterlimit:4;stroke-opacity:1;stroke-dasharray:none"
       d="m 53.395994,1021.3884 c 0,0 2.26996,0.8793 5.605537,4.9135 2.422145,-10.5882 7.404844,-16.1246 7.404844,-16.1246"
       id="path4376-4"
       inkscape:connector-curvature="0"
       sodipodi:nodetypes="ccc" />
  </g>
</svg>
